<svg xmlns="http://www.w3.org/2000/svg" version="1.1" xmlns:xlink="http://www.w3.org/1999/xlink" xmlns:svgjs="http://svgjs.com/svgjs" width="1920" height="1080" preserveAspectRatio="none" viewBox="0 0 1920 1080">
    <g mask="url(&quot;#SvgjsMask1010&quot;)" fill="none">
        <path d="M388.03891649208373 759.5414519020965L623.1555816838047 767.7519067709251 631.3660365526333 532.635241579204 396.24937136091233 524.4247867103754z" fill="rgba(106, 48, 250, 1)" class="triangle-float3"></path>
        <path d="M1726.7195441650756 994.9472285671362L1785.4600223230748 718.5950063798509 1509.1078001357896 659.8545282218518 1450.3673219777904 936.2067504091369z" fill="rgba(106, 48, 250, 1)" class="triangle-float2"></path>
        <path d="M893.105,1470.08C998.332,1471.141,1080.682,1389.773,1132.151,1297.987C1182.309,1208.539,1197.579,1102.488,1150.248,1011.513C1099.145,913.287,1003.795,835.773,893.105,838.515C785.962,841.169,705.631,928.159,657.118,1023.727C613.524,1109.604,617.253,1208.108,662.267,1293.249C710.824,1385.09,789.223,1469.032,893.105,1470.08" fill="rgba(106, 48, 250, 1)" class="triangle-float1"></path>
        <path d="M191.28,137.36C234.037,135.782,273.538,117.199,297.261,81.592C324.177,41.192,343.307,-11.334,317.915,-52.709C293.187,-93.001,238.54,-92.304,191.28,-91.098C146.925,-89.966,99.941,-83.461,75.364,-46.521C48.342,-5.906,44.81,48.68,70.825,89.948C95.488,129.071,145.063,139.066,191.28,137.36" fill="rgba(106, 48, 250, 1)" class="triangle-float2"></path>
        <path d="M242.5062373007938 660.8253427772014L451.82618450200425 686.7291181790035 382.75833717645236 515.7801972697664z" fill="rgba(106, 48, 250, 1)" class="triangle-float3"></path>
        <path d="M1026.453,301.348C1058.166,301.441,1079.668,273.105,1095.593,245.68C1111.611,218.094,1125.249,185.546,1109.947,157.557C1094.201,128.756,1059.247,117.81,1026.453,119.219C996.166,120.52,968.988,137.593,954.523,164.234C940.694,189.703,944.545,219.615,958.008,245.279C972.692,273.271,994.843,301.256,1026.453,301.348" fill="rgba(106, 48, 250, 1)" class="triangle-float2"></path>
        <path d="M1284.2338862496847 220.52609233771977L1255.091702368906 36.52958471951416 1100.237378631479 249.66827621849856z" fill="rgba(106, 48, 250, 1)" class="triangle-float2"></path>
        <path d="M1549.245,584.764C1591.796,583.827,1632.155,564.787,1654.182,528.369C1677.001,490.642,1680.516,442.902,1657.964,405.015C1635.867,367.892,1592.444,352.621,1549.245,352.076C1504.894,351.516,1459.187,364.603,1435.668,402.209C1410.858,441.879,1411.269,493.446,1435.986,533.174C1459.475,570.928,1504.792,585.743,1549.245,584.764" fill="rgba(106, 48, 250, 1)" class="triangle-float3"></path>
    </g>
    <defs>
        <mask id="SvgjsMask1010">
            <rect width="1920" height="1080" fill="#ffffff"></rect>
        </mask>
        <style>
            @keyframes float1 {
                0%{transform: translate(0, 0)}
                50%{transform: translate(-10px, 0)}
                100%{transform: translate(0, 0)}
            }

            .triangle-float1 {
                animation: float1 5s infinite;
            }

            @keyframes float2 {
                0%{transform: translate(0, 0)}
                50%{transform: translate(-5px, -5px)}
                100%{transform: translate(0, 0)}
            }

            .triangle-float2 {
                animation: float2 4s infinite;
            }

            @keyframes float3 {
                0%{transform: translate(0, 0)}
                50%{transform: translate(0, -10px)}
                100%{transform: translate(0, 0)}
            }

            .triangle-float3 {
                animation: float3 6s infinite;
            }
        </style>
    </defs>
</svg>