<svg width="1920" height="1080" viewBox="0 0 1920 1080" fill="none" xmlns="http://www.w3.org/2000/svg">
<g clip-path="url(#clip0_12_2)">
<path fill-rule="evenodd" clip-rule="evenodd" d="M1511 694.737C1556.29 694.737 1593 731.343 1593 776.5V940.661C1593 985.818 1556.29 1022.42 1511 1022.42C1480.81 1022.42 1453.48 1040.59 1429 1076.93V776.5C1429 731.343 1465.71 694.737 1511 694.737Z" fill="#75CBB3"/>
<path fill-rule="evenodd" clip-rule="evenodd" d="M1021 774C1066.29 774 1103 810.625 1103 855.805V1081.5C1035.5 1081.5 1080.79 1081.5 1035.5 1081.5H939V855.805C939 810.625 975.713 774 1021 774Z" fill="#DC2249"/>
<path fill-rule="evenodd" clip-rule="evenodd" d="M1429 773.018H1103V4.68768H1236.12V0H1429V773.018ZM1429 775.689V799.72H1103V775.689H1429ZM1429 804.171V825.977H1103V804.171H1429ZM1429 833.098V852.234H1103V833.098H1429ZM1429 862.025V878.046H1103V862.025H1429ZM1429 889.617V905.193H1103V889.617H1429ZM1429 919.434V930.086C1429 930.244 1429 930.402 1429 930.559H1103C1103 930.402 1103 930.244 1103 930.086V919.434H1429ZM1427.16 947.471C1426.44 950.815 1425.52 954.083 1424.41 957.261H1107.59C1106.48 954.083 1105.56 950.815 1104.84 947.471H1427.16ZM1415.04 975.952C1413.26 978.588 1411.34 981.114 1409.28 983.518H1122.72C1120.66 981.114 1118.74 978.588 1116.96 975.952H1415.04ZM1380.78 1004.88C1370.62 1009.46 1359.36 1012 1347.5 1012H1184.5C1172.64 1012 1161.38 1009.46 1151.22 1004.88H1380.78H1380.78Z" fill="#7A4865"/>
<mask id="mask0_12_2" style="mask-type:alpha" maskUnits="userSpaceOnUse" x="1102" y="0" width="328" height="730">
<path d="M1102.7 0H1429.22V303.848C1429.22 348.999 1392.68 385.601 1347.59 385.601C1302.51 385.601 1265.96 422.203 1265.96 467.354V566.048C1265.96 656.35 1192.87 729.554 1102.7 729.554V0Z" fill="white"/>
</mask>
<g mask="url(#mask0_12_2)">
<path d="M1102.7 0H1429.22V303.848C1429.22 348.999 1392.68 385.601 1347.59 385.601C1302.51 385.601 1265.96 422.203 1265.96 467.354V566.048C1265.96 656.35 1192.87 729.554 1102.7 729.554V0Z" fill="#F6CB51"/>
</g>
<path fill-rule="evenodd" clip-rule="evenodd" d="M1920 445.721V915.454C1920 960.616 1883.51 997.227 1838.5 997.227C1808.49 997.227 1781.33 1024.48 1757 1079V376C1762.83 415.451 1796.7 445.721 1837.61 445.721H1920Z" fill="#3D2C42"/>
<mask id="mask1_12_2" style="mask-type:alpha" maskUnits="userSpaceOnUse" x="1756" y="609" width="165" height="559">
<path d="M1838.4 609.674C1883.57 609.674 1920.18 646.251 1920.18 691.371V1086.24C1920.18 1131.36 1883.57 1167.94 1838.4 1167.94C1793.24 1167.94 1756.63 1131.36 1756.63 1086.24V691.371C1756.63 646.251 1793.24 609.674 1838.4 609.674Z" fill="white"/>
</mask>
<g mask="url(#mask1_12_2)">
<path d="M1838.4 609.674C1883.57 609.674 1920.18 646.251 1920.18 691.371V1086.24C1880 1086.24 1887.16 1086.24 1842 1086.24C1796.84 1086.24 1782 1086.24 1756.63 1086.24V691.371C1756.63 646.251 1793.24 609.674 1838.4 609.674Z" fill="#DC2249"/>
</g>
<path fill-rule="evenodd" clip-rule="evenodd" d="M1020 662.535C1012.27 662.535 1006 656.131 1006 648.233C1006 640.334 1012.27 633.931 1020 633.931C1027.73 633.931 1034 640.334 1034 648.233C1034 656.131 1027.73 662.535 1020 662.535ZM1020 732C1012.27 732 1006 725.597 1006 717.698C1006 709.8 1012.27 703.397 1020 703.397C1027.73 703.397 1034 709.8 1034 717.698C1034 725.597 1027.73 732 1020 732ZM1020 523.603C1012.27 523.603 1006 517.2 1006 509.302C1006 501.403 1012.27 495 1020 495C1027.73 495 1034 501.403 1034 509.302C1034 517.2 1027.73 523.603 1020 523.603ZM1020 593.069C1012.27 593.069 1006 586.666 1006 578.767C1006 570.869 1012.27 564.466 1020 564.466C1027.73 564.466 1034 570.869 1034 578.767C1034 586.666 1027.73 593.069 1020 593.069Z" fill="#75CBB3"/>
<mask id="mask2_12_2" style="mask-type:alpha" maskUnits="userSpaceOnUse" x="1438" y="10" width="312" height="312">
<path d="M1593.59 321.742C1679.45 321.742 1749.05 252.159 1749.05 166.324C1749.05 80.4891 1679.45 10.9062 1593.59 10.9062C1507.73 10.9062 1438.12 80.4891 1438.12 166.324C1438.12 252.159 1507.73 321.742 1593.59 321.742Z" fill="white"/>
</mask>
<g mask="url(#mask2_12_2)">
<path d="M1593.59 321.742C1679.45 321.742 1749.05 252.159 1749.05 166.324C1749.05 80.4891 1679.45 10.9062 1593.59 10.9062C1507.73 10.9062 1438.12 80.4891 1438.12 166.324C1438.12 252.159 1507.73 321.742 1593.59 321.742Z" fill="#75CBB3"/>
<path fill-rule="evenodd" clip-rule="evenodd" d="M1920.88 -0.000488281V928.747C1920.88 973.937 1884.25 1010.57 1839.06 1010.57H1675.41C1630.22 1010.57 1593.59 973.937 1593.59 928.747V-0.000488281H1920.88Z" fill="white"/>
<path d="M1749.05 164.961H1593.59V429.444H1749.05V164.961Z" fill="#7A4865"/>
</g>
<path d="M1511.72 793.221C1621.65 793.221 1710.76 704.133 1710.76 594.239C1710.76 484.344 1621.65 395.257 1511.72 395.257C1401.79 395.257 1312.67 484.344 1312.67 594.239C1312.67 704.133 1401.79 793.221 1511.72 793.221Z" fill="white"/>
<path d="M1568.98 610.593C1617.16 610.593 1656.23 571.542 1656.23 523.368C1656.23 475.195 1617.16 436.144 1568.98 436.144C1520.79 436.144 1481.72 475.195 1481.72 523.368C1481.72 571.542 1520.79 610.593 1568.98 610.593Z" fill="#75CBB3"/>
<path d="M1266 311C1300.79 311 1329 282.794 1329 248C1329 213.206 1300.79 185 1266 185C1231.21 185 1203 213.206 1203 248C1203 282.794 1231.21 311 1266 311Z" fill="#7A4865"/>
<path d="M1854 405C1888.79 405 1917 377.018 1917 342.5C1917 307.982 1888.79 280 1854 280C1819.21 280 1791 307.982 1791 342.5C1791 377.018 1819.21 405 1854 405Z" fill="#7A4865"/>
<path d="M1150 185C1162.7 185 1173 174.703 1173 162C1173 149.297 1162.7 139 1150 139C1137.3 139 1127 149.297 1127 162C1127 174.703 1137.3 185 1150 185Z" fill="#7A4865"/>
<path d="M1173.5 407C1190.34 407 1204 393.121 1204 376C1204 358.879 1190.34 345 1173.5 345C1156.66 345 1143 358.879 1143 376C1143 393.121 1156.66 407 1173.5 407Z" fill="#F2F2F2"/>
</g>
<defs>
<clipPath id="clip0_12_2">
<rect width="1920" height="1080" fill="white"/>
</clipPath>
</defs>
</svg>
