<svg width="1920" height="1080" viewBox="0 0 1920 1080" fill="none" xmlns="http://www.w3.org/2000/svg">
<g clip-path="url(#clip0_2_195)">
<path d="M823.019 429.933C851.331 429.933 874.283 406.982 874.283 378.669C874.283 350.357 851.331 327.405 823.019 327.405C794.707 327.405 771.755 350.357 771.755 378.669C771.755 406.982 794.707 429.933 823.019 429.933Z" stroke="#44AB96" stroke-width="13" stroke-linecap="round" stroke-linejoin="round"/>
<path d="M490.443 405.583C449.744 405.583 416.751 438.575 416.751 479.275C416.751 519.975 449.744 552.967 490.443 552.967C531.143 552.967 564.135 519.975 564.135 479.275V405.583" stroke="#44AB96" stroke-width="13" stroke-linecap="round" stroke-linejoin="round"/>
<path d="M1943.12 989.993C1943.12 1033.17 1977.56 1068.17 2020.03 1068.17C2062.51 1068.17 2096.93 1033.17 2096.93 989.993C2096.93 946.817 2062.51 911.815 2020.03 911.815H1762.43" stroke="#44AB96" stroke-width="13" stroke-linecap="round" stroke-linejoin="round"/>
<path d="M1227 155.5C1227 200.166 1262.17 215.906 1307.46 215.906C1352.76 215.906 1388 200.167 1388 155.5" stroke="#4484AB" stroke-width="13" stroke-linecap="round" stroke-linejoin="round"/>
<path d="M1465.74 596C1506.44 596 1539.43 628.827 1539.43 669.322C1539.43 709.818 1506.44 742.644 1465.74 742.644C1425.04 742.644 1392.05 709.818 1392.05 669.322V395.33" stroke="#DA774A" stroke-width="13" stroke-linecap="round" stroke-linejoin="round"/>
<path d="M952.081 379.95C952.081 307.046 893.925 247.945 822.188 247.945C750.451 247.945 692.295 307.046 692.295 379.95C692.295 452.854 750.451 511.955 822.188 511.955H1162.64" stroke="#FFB017" stroke-width="13" stroke-linecap="round" stroke-linejoin="round"/>
<path d="M1990.1 806.725C2061.85 806.725 2120 747.624 2120 674.72C2120 601.816 2061.85 542.715 1990.1 542.715H1649.65" stroke="#44AB96" stroke-width="13" stroke-linecap="round" stroke-linejoin="round"/>
<path d="M1497 154.5C1497 222.804 1542.94 223.595 1610.51 223.595H1736.21C1803.78 223.595 1847.5 222.804 1847.5 154.5" stroke="#DA774A" stroke-width="13" stroke-linecap="round" stroke-linejoin="round"/>
<path d="M1130.6 894.514V780.024C1130.6 747.347 1157.28 720.857 1190.2 720.857C1223.11 720.857 1249.79 747.347 1249.79 780.024V1009.01C1249.79 1041.68 1223.11 1068.17 1190.2 1068.17C1157.28 1068.17 1130.6 1041.68 1130.6 1009.01V981.343" stroke="#E53855" stroke-width="13" stroke-linecap="round" stroke-linejoin="round"/>
<path d="M1240.82 282.46V292.442C1240.82 349.265 1194.63 395.33 1137.65 395.33C1080.67 395.33 1034.48 349.265 1034.48 292.442V158" stroke="#FFB017" stroke-width="13" stroke-linecap="round" stroke-linejoin="round"/>
<path d="M1031.92 720.857V1017.72C1031.92 1106.46 1104.5 1178.39 1194.04 1178.39C1283.58 1178.39 1356.16 1106.46 1356.16 1017.72V947.584" stroke="#44AB96" stroke-width="13" stroke-linecap="round" stroke-linejoin="round"/>
<path d="M1465.74 479.915H1537.74C1586.1 479.915 1625.3 442.905 1625.3 397.252C1625.3 351.599 1586.1 314.589 1537.74 314.589H1393.74C1345.38 314.589 1306.18 351.599 1306.18 397.252" stroke="#44AB96" stroke-width="13" stroke-linecap="round" stroke-linejoin="round"/>
<path d="M690 157.5C580.772 157.5 564.136 224.102 564.136 333.813" stroke="#44AB96" stroke-width="13" stroke-linecap="round" stroke-linejoin="round"/>
<path d="M1927.12 1421.69C1967.82 1421.69 2000.81 1454.45 2000.81 1494.84C2000.81 1535.24 1967.82 1568 1927.12 1568C1886.42 1568 1853.43 1535.24 1853.43 1494.84V1018.19" stroke="#E53855" stroke-width="13" stroke-linecap="round" stroke-linejoin="round"/>
<path d="M1026.79 619.611H1152.87C1237.54 619.611 1306.18 550.755 1306.18 465.818" stroke="#4484AB" stroke-width="13" stroke-linecap="round" stroke-linejoin="round"/>
<path d="M1762.43 1020.75V1089.64C1762.43 1159.18 1706.04 1215.56 1636.47 1215.56H1538.15" stroke="#4484AB" stroke-width="13" stroke-linecap="round" stroke-linejoin="round"/>
<path d="M2000.81 677.282H1893.15C1815.29 677.282 1752.18 740.974 1752.18 819.54" stroke="#DA774A" stroke-width="13" stroke-linecap="round" stroke-linejoin="round"/>
<path d="M1464.46 834.92C1464.46 844.779 1464.46 968.897 1464.46 1029.72" stroke="#44AB96" stroke-width="13" stroke-linecap="round" stroke-linejoin="round"/>
<path d="M1649.74 667V849.411C1649.74 878.113 1626.3 901.362 1597.37 901.362C1568.45 901.362 1545 924.629 1545 953.332V964.111C1545 992.813 1568.45 1016.08 1597.37 1016.08C1626.3 1016.08 1649.74 1039.35 1649.74 1068.05V1079.99" stroke="#FFB017" stroke-width="13" stroke-linecap="round" stroke-linejoin="round"/>
<path d="M1967.49 374.723V400.717C1967.49 437.379 1937.67 467.1 1900.92 467.1C1864.15 467.1 1834.33 437.379 1834.33 400.717V379.186C1834.33 342.802 1804.75 313.308 1768.27 313.308C1731.78 313.308 1702.2 342.802 1702.2 379.186V405.684" stroke="#E53855" stroke-width="13" stroke-linecap="round" stroke-linejoin="round"/>
</g>
<defs>
<clipPath id="clip0_2_195">
<rect width="1920" height="1080" fill="white"/>
</clipPath>
</defs>
</svg>
