<svg width="24" height="24" viewBox="0 0 24 24" fill="none" xmlns="http://www.w3.org/2000/svg">
<path d="M23.6094 14.5C23.6094 14.5521 23.6042 14.5885 23.5938 14.6094C22.9271 17.401 21.5312 19.6641 19.4062 21.3984C17.2812 23.1328 14.7917 24 11.9375 24C10.4167 24 8.94531 23.7135 7.52344 23.1406C6.10156 22.5677 4.83333 21.75 3.71875 20.6875L1.70312 22.7031C1.50521 22.901 1.27083 23 1 23C0.729167 23 0.494792 22.901 0.296875 22.7031C0.0989583 22.5052 0 22.2708 0 22V15C0 14.7292 0.0989583 14.4948 0.296875 14.2969C0.494792 14.099 0.729167 14 1 14H8C8.27083 14 8.50521 14.099 8.70312 14.2969C8.90104 14.4948 9 14.7292 9 15C9 15.2708 8.90104 15.5052 8.70312 15.7031L6.5625 17.8438C7.30208 18.5312 8.14062 19.0625 9.07812 19.4375C10.0156 19.8125 10.9896 20 12 20C13.3958 20 14.6979 19.6615 15.9062 18.9844C17.1146 18.3073 18.0833 17.375 18.8125 16.1875C18.9271 16.0104 19.2031 15.401 19.6406 14.3594C19.724 14.1198 19.8802 14 20.1094 14H23.1094C23.2448 14 23.362 14.0495 23.4609 14.1484C23.5599 14.2474 23.6094 14.3646 23.6094 14.5ZM24 2V9C24 9.27083 23.901 9.50521 23.7031 9.70312C23.5052 9.90104 23.2708 10 23 10H16C15.7292 10 15.4948 9.90104 15.2969 9.70312C15.099 9.50521 15 9.27083 15 9C15 8.72917 15.099 8.49479 15.2969 8.29688L17.4531 6.14062C15.9115 4.71354 14.0938 4 12 4C10.6042 4 9.30208 4.33854 8.09375 5.01562C6.88542 5.69271 5.91667 6.625 5.1875 7.8125C5.07292 7.98958 4.79688 8.59896 4.35938 9.64062C4.27604 9.88021 4.11979 10 3.89062 10H0.78125C0.645833 10 0.528646 9.95052 0.429688 9.85156C0.330729 9.7526 0.28125 9.63542 0.28125 9.5V9.39062C0.958333 6.59896 2.36458 4.33594 4.5 2.60156C6.63542 0.867188 9.13542 0 12 0C13.5208 0 15 0.289062 16.4375 0.867188C17.875 1.44531 19.151 2.26042 20.2656 3.3125L22.2969 1.29688C22.4948 1.09896 22.7292 1 23 1C23.2708 1 23.5052 1.09896 23.7031 1.29688C23.901 1.49479 24 1.72917 24 2Z" fill="#F5DEB3"/>
</svg>
