<svg width="1920" height="1080" viewBox="0 0 1920 1080" fill="none" xmlns="http://www.w3.org/2000/svg">
<g clip-path="url(#clip0_22_150)">
<path d="M1222.73 205.275C1222.73 187.973 1219.33 170.84 1212.73 154.856C1206.13 138.871 1196.45 124.347 1184.25 112.112C1172.06 99.8775 1157.57 90.1725 1141.64 83.5506C1125.7 76.9294 1108.62 73.5215 1091.37 73.5215C1074.11 73.5215 1057.03 76.9294 1041.09 83.5506C1025.16 90.1725 1010.68 99.8775 998.477 112.112C986.278 124.347 976.602 138.871 970 154.856C963.397 170.84 960 187.973 960 205.275H1091.37H1222.73Z" fill="#94C0D4"/>
<path d="M960 78.5071C977.298 78.5071 994.427 75.1084 1010.41 68.5051C1026.39 61.9016 1040.91 52.2232 1053.14 40.0216C1065.37 27.8203 1075.07 13.3351 1081.7 -2.60657C1088.32 -18.5485 1091.72 -35.6349 1091.72 -52.8902C1091.72 -70.1456 1088.32 -87.232 1081.7 -103.174C1075.07 -119.116 1065.37 -133.601 1053.14 -145.802C1040.91 -158.004 1026.39 -167.682 1010.41 -174.286C994.427 -180.889 977.298 -184.288 960 -184.288V-52.8902V78.5071Z" fill="#F45B0F"/>
<path d="M1249.08 526.469C1231.78 526.469 1214.65 523.062 1198.67 516.44C1182.69 509.818 1168.17 500.113 1155.94 487.878C1143.7 475.644 1134 461.119 1127.38 445.135C1120.76 429.15 1117.35 412.017 1117.35 394.715H1249.08V526.469Z" fill="#161616"/>
<path d="M960 235.899C977.298 235.899 994.427 239.306 1010.41 245.928C1026.39 252.55 1040.91 262.255 1053.14 274.49C1065.37 286.724 1075.07 301.249 1081.7 317.233C1088.32 333.217 1091.72 350.351 1091.72 367.652H960V235.899Z" fill="#F45B0F"/>
<path d="M960 460.592C960 424.21 989.487 394.715 1025.86 394.715H1091.72V526.469H1025.86C989.487 526.469 960 496.974 960 460.592Z" fill="#FFD726"/>
<path d="M1117.35 302.488C1117.35 338.87 1146.84 368.364 1183.21 368.364H1249.08V236.611H1183.21C1146.84 236.611 1117.35 266.105 1117.35 302.488Z" fill="#048ECB"/>
<path d="M1196.74 78.507C1225.65 78.507 1249.08 55.0712 1249.08 26.1617C1249.08 -2.74781 1225.65 -26.1836 1196.74 -26.1836C1167.84 -26.1836 1144.41 -2.74781 1144.41 26.1617C1144.41 55.0712 1167.84 78.507 1196.74 78.507Z" fill="#FFD726"/>
<path d="M1695.51 262.25C1695.51 279.552 1692.1 296.684 1685.48 312.669C1678.86 328.655 1669.16 343.179 1656.92 355.413C1644.69 367.648 1630.17 377.353 1614.19 383.974C1598.21 390.595 1581.08 394.003 1563.78 394.003V262.25H1695.51Z" fill="#FFD726"/>
<path d="M1274.71 393.291C1283.31 393.291 1291.83 394.994 1299.78 398.305C1307.72 401.616 1314.94 406.468 1321.03 412.585C1327.11 418.703 1331.93 425.965 1335.23 433.957C1338.52 441.95 1340.21 450.516 1340.21 459.167C1340.21 467.818 1338.52 476.385 1335.23 484.377C1331.93 492.37 1327.11 499.632 1321.03 505.749C1314.94 511.866 1307.72 516.719 1299.78 520.029C1291.83 523.34 1283.31 525.044 1274.71 525.044V393.291Z" fill="#94C0D4"/>
<path d="M1538.15 525.044C1520.85 525.044 1503.72 521.646 1487.74 515.042C1471.76 508.439 1457.24 498.76 1445.01 486.559C1432.78 474.357 1423.08 459.872 1416.46 443.931C1409.84 427.989 1406.43 410.902 1406.43 393.647C1406.43 376.392 1409.84 359.305 1416.46 343.363C1423.08 327.422 1432.78 312.936 1445.01 300.735C1457.24 288.533 1471.76 278.855 1487.74 272.251C1503.72 265.648 1520.85 262.25 1538.15 262.25V525.044Z" fill="#94C0D4"/>
<path d="M1406.43 -53.2466H1538.15V78.5069C1520.85 78.5069 1503.72 75.0997 1487.74 68.4778C1471.76 61.8559 1457.24 52.1509 1445.01 39.9163C1432.78 27.6816 1423.08 13.1571 1416.46 -2.82718C1409.84 -18.8115 1406.43 -35.9447 1406.43 -53.2466Z" fill="#F45B0F"/>
<path d="M1563.78 -184.288C1581.08 -184.288 1598.21 -180.89 1614.19 -174.286C1630.17 -167.682 1644.69 -158.003 1656.92 -145.801C1669.16 -133.6 1678.86 -119.115 1685.48 -103.173C1692.1 -87.2323 1695.51 -70.1453 1695.51 -52.8902C1695.51 -35.6351 1692.1 -18.5482 1685.48 -2.60711C1678.86 13.334 1669.16 27.8193 1656.92 40.0208C1644.69 52.2224 1630.17 61.9011 1614.19 68.5051C1598.21 75.1092 1581.08 78.5071 1563.78 78.5071V-184.288Z" fill="#FFD726"/>
<path d="M1853.57 525.044C1853.57 507.742 1856.97 490.609 1863.57 474.624C1870.17 458.639 1879.85 444.115 1892.05 431.88C1904.25 419.646 1918.73 409.941 1934.67 403.32C1950.6 396.698 1967.69 393.291 1984.94 393.291C2002.19 393.291 2019.27 396.698 2035.21 403.32C2051.15 409.941 2065.63 419.646 2077.83 431.88C2090.02 444.115 2099.7 458.639 2106.3 474.624C2112.91 490.609 2116.3 507.742 2116.3 525.044H1853.57Z" fill="#048ECB"/>
<path d="M1827.23 235.187C1809.93 235.187 1792.8 231.789 1776.82 225.185C1760.84 218.581 1746.32 208.902 1734.09 196.701C1721.85 184.499 1712.15 170.014 1705.53 154.073C1698.91 138.131 1695.51 121.045 1695.51 103.789C1695.51 86.5343 1698.91 69.4474 1705.53 53.5063C1712.15 37.5652 1721.85 23.0799 1734.09 10.8784C1746.32 -1.32318 1760.84 -11.0019 1776.82 -17.6059C1792.8 -24.21 1809.93 -27.6079 1827.23 -27.6079V235.187Z" fill="#94C0D4"/>
<path d="M1274.71 235.187V-27.6079C1292.01 -27.6079 1309.13 -24.21 1325.12 -17.6059C1341.1 -11.0019 1355.62 -1.32318 1367.85 10.8784C1380.08 23.0799 1389.78 37.5652 1396.4 53.5063C1403.02 69.4474 1406.43 86.5343 1406.43 103.789C1406.43 121.045 1403.02 138.131 1396.4 154.073C1389.78 170.014 1380.08 184.499 1367.85 196.701C1355.62 208.902 1341.1 218.581 1325.12 225.185C1309.13 231.789 1292.01 235.187 1274.71 235.187Z" fill="#FFD726"/>
<path d="M1432.06 235.899C1432.06 218.597 1435.46 201.464 1442.06 185.48C1448.66 169.495 1458.34 154.971 1470.54 142.736C1482.74 130.501 1497.22 120.797 1513.16 114.175C1529.09 107.553 1546.18 104.146 1563.43 104.146C1580.68 104.146 1597.76 107.553 1613.7 114.175C1629.64 120.797 1644.12 130.501 1656.32 142.736C1668.51 154.971 1678.19 169.495 1684.79 185.48C1691.4 201.464 1694.79 218.597 1694.79 235.899H1432.06Z" fill="#F45B0F"/>
<path d="M1984.58 262.25C1984.58 279.552 1981.18 296.684 1974.58 312.669C1967.98 328.655 1958.3 343.179 1946.1 355.413C1933.91 367.648 1919.42 377.353 1903.49 383.974C1887.55 390.595 1870.47 394.003 1853.22 394.003C1835.96 394.003 1818.88 390.595 1802.94 383.974C1787.01 377.353 1772.53 367.648 1760.33 355.413C1748.13 343.179 1738.45 328.655 1731.85 312.669C1725.25 296.684 1721.85 279.552 1721.85 262.25H1984.58Z" fill="#F45B0F"/>
<path d="M1984.58 104.146H1852.86V-27.6079C1870.16 -27.6079 1887.29 -24.2008 1903.27 -17.5788C1919.25 -10.9569 1933.77 -1.25196 1946 10.9827C1958.23 23.2173 1967.93 37.7418 1974.55 53.7261C1981.17 69.7104 1984.58 86.8437 1984.58 104.146Z" fill="#161616"/>
<path d="M1761.37 393.291C1797.74 393.291 1827.23 422.785 1827.23 459.167V525.044H1695.51V459.167C1695.51 422.785 1724.99 393.291 1761.37 393.291Z" fill="#E6E6E6"/>
<path d="M1616.12 420.354C1645.02 420.354 1668.45 443.789 1668.45 472.699C1668.45 501.608 1645.02 525.044 1616.12 525.044C1587.21 525.044 1563.78 501.608 1563.78 472.699C1563.78 443.789 1587.21 420.354 1616.12 420.354Z" fill="#F45B0F"/>
<path d="M1327.04 262.962C1355.94 262.962 1379.37 286.398 1379.37 315.307C1379.37 344.217 1355.94 367.652 1327.04 367.652C1298.14 367.652 1274.71 344.217 1274.71 315.307C1274.71 286.398 1298.14 262.962 1327.04 262.962Z" fill="#E6E6E6"/>
<path d="M1905.9 131.208C1934.81 131.208 1958.24 154.644 1958.24 183.553C1958.24 212.463 1934.81 235.899 1905.9 235.899C1877 235.899 1853.57 212.463 1853.57 183.553C1853.57 154.644 1877 131.208 1905.9 131.208Z" fill="#94C0D4"/>
<path d="M1380.8 1002.21C1380.8 1019.51 1377.39 1036.64 1370.77 1052.63C1364.15 1068.61 1354.45 1083.13 1342.22 1095.37C1329.98 1107.6 1315.46 1117.31 1299.48 1123.93C1283.5 1130.55 1266.37 1133.96 1249.08 1133.96V1002.21H1380.8Z" fill="#94C0D4"/>
<path d="M1801.59 1160.31C1792.99 1160.31 1784.47 1158.61 1776.53 1155.3C1768.58 1151.98 1761.36 1147.13 1755.27 1141.01C1749.19 1134.9 1744.37 1127.64 1741.08 1119.64C1737.79 1111.65 1736.09 1103.08 1736.09 1094.43C1736.09 1085.78 1737.79 1077.22 1741.08 1069.22C1744.37 1061.23 1749.19 1053.97 1755.27 1047.85C1761.36 1041.73 1768.58 1036.88 1776.53 1033.57C1784.47 1030.26 1792.99 1028.56 1801.59 1028.56V1160.31Z" fill="#FFD726"/>
<path d="M1512.52 686.709C1503.92 686.709 1495.4 685.005 1487.45 681.695C1479.5 678.385 1472.28 673.531 1466.2 667.415C1460.12 661.297 1455.29 654.035 1452 646.042C1448.71 638.05 1447.01 629.484 1447.01 620.833C1447.01 612.182 1448.71 603.615 1452 595.623C1455.29 587.631 1460.12 580.369 1466.2 574.25C1472.28 568.134 1479.5 563.28 1487.45 559.971C1495.4 556.661 1503.92 554.956 1512.52 554.956V686.709Z" fill="#161616"/>
<path d="M1223.44 1265C1206.15 1265 1189.02 1261.6 1173.04 1255C1157.05 1248.39 1142.53 1238.72 1130.3 1226.51C1118.07 1214.31 1108.37 1199.83 1101.75 1183.89C1095.13 1167.94 1091.72 1150.86 1091.72 1133.6C1091.72 1116.35 1095.13 1099.26 1101.75 1083.32C1108.37 1067.38 1118.07 1052.89 1130.3 1040.69C1142.53 1028.49 1157.05 1018.81 1173.04 1012.21C1189.02 1005.6 1206.15 1002.21 1223.44 1002.21V1265Z" fill="#FFD726"/>
<path d="M1091.72 685.997H1223.44V817.751C1206.15 817.751 1189.02 814.343 1173.04 807.721C1157.05 801.1 1142.53 791.395 1130.3 779.16C1118.07 766.925 1108.37 752.401 1101.75 736.417C1095.13 720.432 1091.72 703.299 1091.72 685.997Z" fill="#F45B0F"/>
<path d="M1249.08 554.956C1266.37 554.956 1283.5 558.354 1299.48 564.958C1315.46 571.562 1329.98 581.241 1342.22 593.442C1354.45 605.644 1364.15 620.129 1370.77 636.07C1377.39 652.011 1380.8 669.098 1380.8 686.353C1380.8 703.609 1377.39 720.695 1370.77 736.637C1364.15 752.578 1354.45 767.063 1342.22 779.265C1329.98 791.466 1315.46 801.145 1299.48 807.749C1283.5 814.353 1266.37 817.751 1249.08 817.751V554.956Z" fill="#F45B0F"/>
<path d="M2089.96 876.149C2089.96 893.451 2086.56 910.585 2079.96 926.569C2073.36 942.553 2063.68 957.078 2051.48 969.312C2039.28 981.547 2024.8 991.252 2008.86 997.874C1992.93 1004.49 1975.84 1007.9 1958.59 1007.9C1941.34 1007.9 1924.26 1004.49 1908.32 997.874C1892.38 991.252 1877.9 981.547 1865.7 969.312C1853.51 957.078 1843.83 942.553 1837.23 926.569C1830.62 910.585 1827.23 893.451 1827.23 876.149H2089.96Z" fill="#FFD726"/>
<path d="M1827.23 1002.21C1844.52 1002.21 1861.65 1005.6 1877.63 1012.21C1893.61 1018.81 1908.14 1028.49 1920.37 1040.69C1932.6 1052.89 1942.3 1067.38 1948.92 1083.32C1955.54 1099.26 1958.95 1116.35 1958.95 1133.6C1958.95 1150.86 1955.54 1167.94 1948.92 1183.89C1942.3 1199.83 1932.6 1214.31 1920.37 1226.51C1908.14 1238.72 1893.61 1248.39 1877.63 1255C1861.65 1261.6 1844.52 1265 1827.23 1265V1002.21Z" fill="#048ECB"/>
<path d="M1696.22 844.101C1696.22 826.799 1699.61 809.666 1706.22 793.682C1712.82 777.697 1722.5 763.173 1734.69 750.938C1746.89 738.704 1761.37 728.999 1777.31 722.377C1793.25 715.755 1810.33 712.348 1827.58 712.348C1844.83 712.348 1861.92 715.755 1877.85 722.377C1893.79 728.999 1908.27 738.704 1920.47 750.938C1932.67 763.173 1942.35 777.697 1948.95 793.682C1955.55 809.666 1958.95 826.799 1958.95 844.101H1696.22Z" fill="#F45B0F"/>
<path d="M1801.59 554.956C1801.59 572.258 1798.2 589.391 1791.6 605.375C1784.99 621.36 1775.32 635.884 1763.12 648.119C1750.92 660.353 1736.44 670.058 1720.5 676.68C1704.56 683.302 1687.48 686.709 1670.23 686.709C1652.98 686.709 1635.9 683.302 1619.96 676.68C1604.02 670.058 1589.54 660.353 1577.34 648.119C1565.14 635.884 1555.47 621.36 1548.86 605.375C1542.26 589.391 1538.86 572.258 1538.86 554.956H1801.59Z" fill="#F45B0F"/>
<path d="M1512.52 975.855C1495.22 975.855 1478.09 972.457 1462.11 965.853C1446.13 959.249 1431.61 949.57 1419.38 937.368C1407.15 925.167 1397.44 910.682 1390.82 894.741C1384.2 878.799 1380.8 861.713 1380.8 844.457C1380.8 827.202 1384.2 810.115 1390.82 794.174C1397.44 778.233 1407.15 763.748 1419.38 751.546C1431.61 739.345 1446.13 729.666 1462.11 723.062C1478.09 716.458 1495.22 713.06 1512.52 713.06V975.855Z" fill="#94C0D4"/>
<path d="M960 975.855V713.06C977.298 713.06 994.426 716.458 1010.41 723.062C1026.39 729.666 1040.91 739.345 1053.14 751.546C1065.37 763.748 1075.08 778.233 1081.7 794.174C1088.31 810.115 1091.72 827.202 1091.72 844.457C1091.72 861.713 1088.31 878.799 1081.7 894.741C1075.08 910.682 1065.37 925.167 1053.14 937.368C1040.91 949.57 1026.39 959.249 1010.41 965.853C994.426 972.457 977.298 975.855 960 975.855Z" fill="#F45B0F"/>
<path d="M1117.35 975.854C1117.35 958.553 1120.75 941.419 1127.35 925.435C1133.96 909.451 1143.63 894.926 1155.83 882.692C1168.03 870.457 1182.51 860.752 1198.45 854.13C1214.39 847.508 1231.47 844.101 1248.72 844.101C1265.97 844.101 1283.05 847.508 1298.99 854.13C1314.93 860.752 1329.41 870.457 1341.61 882.692C1353.81 894.926 1363.48 909.451 1370.09 925.435C1376.69 941.419 1380.09 958.553 1380.09 975.854H1117.35Z" fill="#048ECB"/>
<path d="M1669.87 1002.21C1669.87 1019.51 1666.48 1036.64 1659.87 1052.63C1653.27 1068.61 1643.59 1083.13 1631.4 1095.37C1619.2 1107.6 1604.72 1117.31 1588.78 1123.93C1572.84 1130.55 1555.76 1133.96 1538.51 1133.96C1521.26 1133.96 1504.17 1130.55 1488.24 1123.93C1472.3 1117.31 1457.82 1107.6 1445.62 1095.37C1433.42 1083.13 1423.74 1068.61 1417.14 1052.63C1410.54 1036.64 1407.14 1019.51 1407.14 1002.21H1669.87Z" fill="#F45B0F"/>
<path d="M1669.87 844.101H1538.15V712.348C1555.45 712.348 1572.58 715.755 1588.56 722.377C1604.54 728.999 1619.06 738.704 1631.29 750.938C1643.52 763.173 1653.23 777.697 1659.85 793.682C1666.47 809.666 1669.87 826.799 1669.87 844.101Z" fill="#94C0D4"/>
<path d="M1669.87 870.452H1801.59V1002.21C1784.3 1002.21 1767.17 998.798 1751.19 992.176C1735.21 985.554 1720.69 975.849 1708.45 963.615C1696.22 951.38 1686.52 936.855 1679.9 920.871C1673.28 904.887 1669.87 887.754 1669.87 870.452Z" fill="#FFD726"/>
<path d="M1091.72 620.833C1091.72 657.215 1062.23 686.709 1025.86 686.709H960V554.956H1025.86C1062.23 554.956 1091.72 584.45 1091.72 620.833Z" fill="#048ECB"/>
<path d="M1827.23 620.833C1827.23 584.45 1856.71 554.956 1893.09 554.956H1958.95V686.709H1893.09C1856.71 686.709 1827.23 657.215 1827.23 620.833Z" fill="#FFD726"/>
<path d="M1012.33 1002.92C1041.24 1002.92 1064.67 1026.35 1064.67 1055.26C1064.67 1084.17 1041.24 1107.61 1012.33 1107.61C983.43 1107.61 960 1084.17 960 1055.26C960 1026.35 983.43 1002.92 1012.33 1002.92Z" fill="#048ECB"/>
<path d="M1169.69 554.956C1198.59 554.956 1222.02 578.392 1222.02 607.301C1222.02 636.211 1198.59 659.647 1169.69 659.647C1140.78 659.647 1117.35 636.211 1117.35 607.301C1117.35 578.392 1140.78 554.956 1169.69 554.956Z" fill="#161616"/>
<path d="M1591.2 871.164C1620.1 871.164 1643.53 894.6 1643.53 923.509C1643.53 952.419 1620.1 975.855 1591.2 975.855C1562.29 975.855 1538.86 952.419 1538.86 923.509C1538.86 894.6 1562.29 871.164 1591.2 871.164Z" fill="#161616"/>
</g>
<defs>
<clipPath id="clip0_22_150">
<rect width="1920" height="1080" fill="white"/>
</clipPath>
</defs>
</svg>
